<svg width="14" height="13" viewBox="0 0 14 13" fill="none" xmlns="http://www.w3.org/2000/svg">
<path d="M13.7038 6.04336L0.709549 0.0460291C0.528509 -0.0375275 0.315131 -0.00553368 0.166559 0.127445C0.0179865 0.260423 -0.0373753 0.468963 0.0256778 0.658123L1.97297 6.50001L0.0256778 12.3419C-0.0373753 12.5311 0.0179865 12.7396 0.166559 12.8726C0.315131 13.0056 0.528509 13.0375 0.709549 12.954L13.7038 6.95666C13.8817 6.87718 14.0001 6.69465 14.0001 6.50001C14.0001 6.3048 13.8819 6.12293 13.7038 6.04336ZM2.8604 6.00001L1.33983 1.4383L11.2235 6.00001H2.8604ZM11.2235 7.00001L1.33983 11.5617L2.8604 7.00001H11.2235Z" fill="#4F6C7B"/>
</svg>
